<svg xmlns="http://www.w3.org/2000/svg" version="1.1" xmlns:xlink="http://www.w3.org/1999/xlink" xmlns:svgjs="http://svgjs.dev/svgjs" width="1500" height="1500" viewBox="0 0 1500 1500"><rect width="1500" height="1500" fill="#ffd7ea"></rect><g transform="matrix(0.6666666666666666,0,0,0.6666666666666666,248.35330080593923,213.94301075268822)"><svg viewBox="0 0 232 248" data-background-color="#ffd7ea" preserveAspectRatio="xMidYMid meet" height="1603" width="1500" xmlns="http://www.w3.org/2000/svg" xmlns:xlink="http://www.w3.org/1999/xlink"><g id="tight-bounds" transform="matrix(1,0,0,1,0.38203421302210927,0.4000000000000057)"><svg viewBox="0 0 231.2359315739558 247.2" height="247.2" width="231.2359315739558"><g><svg viewBox="0 0 397.4975999999999 424.9400430597577" height="247.2" width="231.2359315739558"><g><rect width="397.4975999999999" height="9.794598411541148" x="0" y="236.7491209455475" fill="#f70f03" opacity="1" stroke-width="0" stroke="transparent" fill-opacity="1" class="rect-yte-0" data-fill-palette-color="primary" rx="1%" id="yte-0" data-palette-color="#f70f03"></rect></g><g transform="matrix(1,0,0,1,0.9887999999999693,272.1840293349451)"><svg viewBox="0 0 395.52 152.75601372481265" height="152.75601372481265" width="395.52"><g id="textblocktransform"><svg viewBox="0 0 395.52 152.75601372481265" height="152.75601372481265" width="395.52" id="textblock"><g><svg viewBox="0 0 395.52 108.61040502997513" height="108.61040502997513" width="395.52"><g transform="matrix(1,0,0,1,0,0)"><svg width="395.52" viewBox="1.44 -34.4 166.95 45.849999999999994" height="108.61040502997513" data-palette-color="#f70f03"><path d="M6.91-10.01L6.91-10.01Q6.91-8.54 7.63-7.29 8.35-6.03 9.52-5.09 10.69-4.15 12.21-3.63 13.72-3.1 15.31-3.1L15.31-3.1Q15.8-3.1 16.31-3.19 16.82-3.27 17.24-3.49 17.65-3.71 17.92-4.06 18.19-4.42 18.19-4.96L18.19-4.96Q18.19-5.98 17.47-6.98 16.75-7.98 15.58-8.97 14.4-9.96 12.89-10.95 11.38-11.94 9.81-12.92 8.25-13.89 6.74-14.88 5.22-15.87 4.05-16.86 2.88-17.85 2.16-18.86 1.44-19.87 1.44-20.9L1.44-20.9Q1.44-21.88 1.94-22.72 2.44-23.56 3.27-24.24 4.1-24.93 5.2-25.46 6.3-26 7.5-26.37 8.69-26.73 9.9-26.92 11.11-27.1 12.21-27.1L12.21-27.1Q13.01-27.1 13.98-27.06 14.94-27.03 15.78-26.84 16.63-26.66 17.19-26.29 17.75-25.93 17.75-25.24L17.75-25.24Q17.75-25.02 17.68-24.69 17.6-24.37 17.26-23.61L17.26-23.61Q16.92-22.9 16.47-22.55 16.02-22.19 15.31-22.19L15.31-22.19Q14.31-22.19 13.2-22.42 12.08-22.66 10.96-22.66L10.96-22.66Q10.35-22.66 9.73-22.6 9.11-22.53 8.59-22.38 8.08-22.22 7.76-21.91 7.45-21.61 7.45-21.14L7.45-21.14Q7.45-20.68 8.12-20.09 8.79-19.51 9.9-18.8 11.01-18.09 12.43-17.25 13.84-16.41 15.32-15.44 16.8-14.48 18.21-13.39 19.63-12.3 20.74-11.1 21.85-9.89 22.52-8.54 23.19-7.2 23.19-5.76L23.19-5.76Q23.19-4 22.39-2.66 21.58-1.32 20.31-0.42 19.04 0.49 17.5 0.94 15.97 1.39 14.5 1.39L14.5 1.39Q13.01 1.39 11.49 1.04 9.96 0.68 8.54 0.04 7.13-0.61 5.9-1.53 4.66-2.44 3.76-3.58 2.86-4.71 2.33-6.03 1.81-7.35 1.81-8.79L1.81-8.79Q1.81-9.4 1.89-10.02 1.98-10.64 2.2-11.12 2.42-11.6 2.81-11.9 3.2-12.21 3.81-12.21L3.81-12.21Q4-12.21 4.25-12.17 4.49-12.13 5.1-11.94L5.1-11.94Q5.81-11.72 6.36-11.24 6.91-10.77 6.91-10.01ZM24.53-23.51L24.53-23.51Q24.53-26.15 27.95-26.15L27.95-26.15Q28.54-26.15 28.98-25.83 29.42-25.51 29.49-24.95L29.49-24.95Q29.71-23.46 29.88-22 30.05-20.53 30.21-18.71 30.37-16.89 30.53-14.51 30.69-12.13 30.88-8.84L30.88-8.84Q30.88-8.5 30.99-8.35 31.1-8.2 31.25-8.2L31.25-8.2Q31.47-8.2 31.69-8.64L31.69-8.64Q32.52-10.47 33.54-11.93 34.57-13.38 35.74-14.39 36.91-15.41 38.22-15.93 39.52-16.46 40.89-16.46L40.89-16.46Q42.7-16.46 44.16-15.43 45.63-14.4 46.65-12.52 47.68-10.64 48.24-7.97 48.8-5.3 48.8-2L48.8-2Q48.8-1.1 48.67-0.52 48.53 0.05 48.22 0.39 47.9 0.73 47.34 0.87 46.77 1 45.94 1L45.94 1Q44.8 1 44.3 0.56 43.8 0.12 43.8-0.81L43.8-0.81Q43.8-3.1 43.49-5.14 43.19-7.18 42.65-8.72 42.11-10.25 41.39-11.16 40.67-12.06 39.84-12.06L39.84-12.06Q37.96-12.06 36.09-9.01 34.23-5.96 32.2 0.2L32.2 0.2Q32 0.76 31.76 1.12 31.52 1.49 31.19 1.71 30.86 1.93 30.39 2.01 29.93 2.1 29.29 2.1L29.29 2.1Q28 2.1 27.45 1.61 26.9 1.12 26.85 0L26.85 0Q26.71-4.25 26.33-8.12 25.95-11.99 25.55-15.12 25.14-18.26 24.84-20.45 24.53-22.63 24.53-23.51ZM72.85-5.35L72.85-5.35Q73.55-5.96 74.24-5.96L74.24-5.96Q74.63-5.96 74.95-5.76 75.26-5.57 75.65-5.15L75.65-5.15Q76.02-4.59 76.18-4.24 76.34-3.88 76.34-3.54L76.34-3.54Q76.34-2.81 75.61-2.15L75.61-2.15Q74.43-1.17 73.07-0.4 71.7 0.37 70.21 0.9 68.72 1.44 67.13 1.72 65.55 2 63.98 2L63.98 2Q62.01 2 60.27 1.5 58.54 1 57.18 0.07 55.83-0.85 54.9-2.16 53.97-3.47 53.58-5.1L53.58-5.1Q53.36-5.79 53.18-5.99 53-6.2 52.58-6.2L52.58-6.2Q51.68-6.2 51.19-6.64 50.7-7.08 50.7-7.91L50.7-7.91Q50.7-8.25 50.75-8.35L50.75-8.35 50.8-8.84Q50.92-9.72 51.28-10.11 51.63-10.5 52.39-10.5L52.39-10.5 52.75-10.5Q53.78-10.5 54.19-11.45L54.19-11.45Q54.95-13.13 56.12-14.53 57.29-15.92 58.76-16.91 60.22-17.9 61.9-18.44 63.57-18.99 65.3-18.99L65.3-18.99Q67.11-18.99 68.68-18.47 70.26-17.94 71.43-17.02 72.6-16.09 73.27-14.84 73.95-13.6 73.95-12.16L73.95-12.16Q73.95-11.16 73.55-10.33 73.16-9.5 72.43-8.87 71.7-8.25 70.66-7.86 69.62-7.47 68.31-7.35L68.31-7.35 59.83-6.49Q59.35-6.49 59.04-6.25 58.74-6.01 58.74-5.59L58.74-5.59Q58.74-4.96 59.21-4.37 59.69-3.78 60.48-3.33 61.27-2.88 62.31-2.61 63.35-2.34 64.45-2.34L64.45-2.34Q65.5-2.34 66.61-2.55 67.72-2.76 68.81-3.15 69.89-3.54 70.92-4.09 71.94-4.64 72.85-5.35ZM67.4-11.65L67.4-11.65Q67.77-11.72 68.04-12 68.31-12.28 68.31-12.7L68.31-12.7Q68.31-13.06 68.04-13.38 67.77-13.7 67.3-13.95 66.84-14.21 66.23-14.36 65.62-14.5 64.94-14.5L64.94-14.5Q63.94-14.5 62.89-14.21 61.84-13.92 60.98-13.44 60.13-12.96 59.59-12.39 59.05-11.82 59.05-11.25L59.05-11.25Q59.05-10.69 59.74-10.69L59.74-10.69Q60.15-10.69 61.08-10.79 62.01-10.89 63.13-11.02 64.25-11.16 65.4-11.33 66.55-11.5 67.4-11.65ZM82.76-10.01L82.76-10.01Q82.76-8.54 83.48-7.29 84.2-6.03 85.37-5.09 86.54-4.15 88.05-3.63 89.57-3.1 91.15-3.1L91.15-3.1Q91.64-3.1 92.16-3.19 92.67-3.27 93.08-3.49 93.5-3.71 93.77-4.06 94.04-4.42 94.04-4.96L94.04-4.96Q94.04-5.98 93.32-6.98 92.6-7.98 91.42-8.97 90.25-9.96 88.74-10.95 87.22-11.94 85.66-12.92 84.1-13.89 82.59-14.88 81.07-15.87 79.9-16.86 78.73-17.85 78.01-18.86 77.29-19.87 77.29-20.9L77.29-20.9Q77.29-21.88 77.79-22.72 78.29-23.56 79.12-24.24 79.95-24.93 81.05-25.46 82.15-26 83.34-26.37 84.54-26.73 85.75-26.92 86.96-27.1 88.05-27.1L88.05-27.1Q88.86-27.1 89.82-27.06 90.79-27.03 91.63-26.84 92.47-26.66 93.03-26.29 93.6-25.93 93.6-25.24L93.6-25.24Q93.6-25.02 93.52-24.69 93.45-24.37 93.11-23.61L93.11-23.61Q92.77-22.9 92.31-22.55 91.86-22.19 91.15-22.19L91.15-22.19Q90.15-22.19 89.04-22.42 87.93-22.66 86.81-22.66L86.81-22.66Q86.2-22.66 85.58-22.6 84.95-22.53 84.44-22.38 83.93-22.22 83.61-21.91 83.29-21.61 83.29-21.14L83.29-21.14Q83.29-20.68 83.96-20.09 84.64-19.51 85.75-18.8 86.86-18.09 88.27-17.25 89.69-16.41 91.17-15.44 92.64-14.48 94.06-13.39 95.48-12.3 96.59-11.1 97.7-9.89 98.37-8.54 99.04-7.2 99.04-5.76L99.04-5.76Q99.04-4 98.23-2.66 97.43-1.32 96.16-0.42 94.89 0.49 93.35 0.94 91.81 1.39 90.35 1.39L90.35 1.39Q88.86 1.39 87.33 1.04 85.81 0.68 84.39 0.04 82.98-0.61 81.74-1.53 80.51-2.44 79.61-3.58 78.7-4.71 78.18-6.03 77.65-7.35 77.65-8.79L77.65-8.79Q77.65-9.4 77.74-10.02 77.82-10.64 78.04-11.12 78.26-11.6 78.65-11.9 79.05-12.21 79.66-12.21L79.66-12.21Q79.85-12.21 80.1-12.17 80.34-12.13 80.95-11.94L80.95-11.94Q81.66-11.72 82.21-11.24 82.76-10.77 82.76-10.01ZM116.4-21.34L116.4-21.34Q117.74-21.34 118.98-20.92 120.23-20.51 121.18-19.78 122.13-19.04 122.71-18.02 123.28-16.99 123.28-15.75L123.28-15.75Q123.28-15.23 123.05-14.76 122.82-14.28 122.43-13.93 122.04-13.57 121.54-13.37 121.03-13.16 120.5-13.16L120.5-13.16Q120.45-13.16 120.41-13.15 120.38-13.13 120.33-13.13L120.33-13.13Q120.28-13.11 120.23-13.11L120.23-13.11 120.33-11.16Q120.42-7.67 121.32-6.05 122.21-4.44 123.65-4.44L123.65-4.44Q124.16-4.44 124.56-4.54 124.97-4.64 125.32-4.77 125.67-4.91 125.99-5 126.31-5.1 126.63-5.1L126.63-5.1Q127.19-5.1 127.61-4.61 128.04-4.13 128.04-3.44L128.04-3.44Q128.04-2.76 127.52-2.08 126.99-1.39 126.14-0.84 125.28-0.29 124.21 0.05 123.13 0.39 122.04 0.39L122.04 0.39Q120.13 0.39 118.69-1.18 117.25-2.76 116.64-5.81L116.64-5.81Q116.49-6.3 116.25-6.3L116.25-6.3Q115.96-6.3 115.74-6.01L115.74-6.01Q113.32-2.95 110.59-1.43 107.85 0.1 105.19 0.1L105.19 0.1Q103.95 0.1 102.94-0.27 101.94-0.63 101.25-1.31 100.55-1.98 100.17-2.94 99.79-3.91 99.79-5.1L99.79-5.1Q99.79-6.79 100.54-8.64 101.28-10.5 102.55-12.3 103.82-14.11 105.5-15.75 107.17-17.38 109.01-18.63 110.85-19.87 112.76-20.61 114.66-21.34 116.4-21.34ZM115.59-12.89L115.59-12.89Q116.03-13.72 116.4-14.1 116.76-14.48 117.45-14.6L117.45-14.6Q117.98-14.67 117.98-14.94L117.98-14.94Q117.98-15.14 117.84-15.36L117.84-15.36Q117.37-15.99 116.86-16.47 116.35-16.94 115.49-16.94L115.49-16.94Q114.57-16.94 113.42-16.41 112.27-15.87 111.09-14.98 109.9-14.09 108.77-12.95 107.63-11.82 106.75-10.62 105.87-9.42 105.34-8.25 104.8-7.08 104.8-6.15L104.8-6.15Q104.8-5.32 105.25-4.86 105.7-4.39 106.48-4.39L106.48-4.39Q108.49-4.39 110.85-6.52 113.22-8.64 115.59-12.89ZM126.75-13.45L126.75-13.45Q126.18-13.5 125.84-14.18 125.5-14.87 125.5-15.7L125.5-15.7Q125.5-16.09 125.56-16.47 125.62-16.85 125.77-17.14 125.92-17.43 126.13-17.61 126.35-17.8 126.65-17.8L126.65-17.8Q127.55-17.8 128.72-17.86 129.89-17.92 131.24-17.99L131.24-17.99Q131.92-18.07 131.99-18.8L131.99-18.8Q132.21-22.34 132.6-24.9 133-27.47 133.56-29.24 134.12-31.01 134.84-32.1 135.56-33.2 136.44-33.79L136.44-33.79Q136.71-33.98 137.07-34.19 137.44-34.4 137.76-34.4L137.76-34.4Q138.37-34.4 139.04-34.09 139.71-33.79 140.28-33.31 140.86-32.84 141.22-32.24 141.59-31.64 141.59-31.05L141.59-31.05Q141.59-30.83 141.49-30.7 141.39-30.57 141.25-30.44L141.25-30.44Q140.3-29.74 139.56-28.86 138.83-27.98 138.32-26.71 137.8-25.44 137.46-23.66 137.12-21.88 136.95-19.36L136.95-19.36Q136.95-18.97 137.08-18.79 137.22-18.6 137.59-18.6L137.59-18.6Q138.54-18.6 139.5-18.75 140.47-18.9 141.34-19.06 142.22-19.21 143.01-19.36 143.79-19.51 144.4-19.51L144.4-19.51Q144.84-19.51 145.04-18.98 145.25-18.46 145.25-17.7L145.25-17.7Q145.25-17.26 145.18-16.8 145.1-16.33 144.95-15.97 144.79-15.6 144.54-15.34 144.3-15.09 143.93-15.04L143.93-15.04 137.44-14.36Q136.93-14.28 136.82-13.94 136.71-13.6 136.71-12.99L136.71-12.99Q136.71-7.59 136.97-3.71 137.24 0.17 137.57 2.82 137.9 5.47 138.17 6.99 138.44 8.52 138.44 9.2L138.44 9.2Q138.44 9.72 138.04 10.13 137.63 10.55 137.01 10.84 136.39 11.13 135.66 11.29 134.92 11.45 134.29 11.45L134.29 11.45Q133.68 11.45 133.2 11.24 132.73 11.04 132.65 10.55L132.65 10.55Q132.41 8.84 132.24 6.8 132.07 4.76 131.96 2.28 131.85-0.2 131.8-3.14 131.75-6.08 131.75-9.59L131.75-9.59Q131.75-10.5 131.75-11.35 131.75-12.21 131.8-13.06L131.8-13.06Q131.8-13.79 130.99-13.79L130.99-13.79 126.75-13.45ZM164.9-5.35L164.9-5.35Q165.61-5.96 166.29-5.96L166.29-5.96Q166.68-5.96 167-5.76 167.32-5.57 167.71-5.15L167.71-5.15Q168.08-4.59 168.23-4.24 168.39-3.88 168.39-3.54L168.39-3.54Q168.39-2.81 167.66-2.15L167.66-2.15Q166.49-1.17 165.12-0.4 163.75 0.37 162.27 0.9 160.78 1.44 159.19 1.72 157.6 2 156.04 2L156.04 2Q154.06 2 152.33 1.5 150.6 1 149.24 0.07 147.89-0.85 146.96-2.16 146.03-3.47 145.64-5.1L145.64-5.1Q145.42-5.79 145.24-5.99 145.05-6.2 144.64-6.2L144.64-6.2Q143.74-6.2 143.25-6.64 142.76-7.08 142.76-7.91L142.76-7.91Q142.76-8.25 142.81-8.35L142.81-8.35 142.86-8.84Q142.98-9.72 143.33-10.11 143.69-10.5 144.44-10.5L144.44-10.5 144.81-10.5Q145.83-10.5 146.25-11.45L146.25-11.45Q147.01-13.13 148.18-14.53 149.35-15.92 150.82-16.91 152.28-17.9 153.95-18.44 155.62-18.99 157.36-18.99L157.36-18.99Q159.16-18.99 160.74-18.47 162.31-17.94 163.49-17.02 164.66-16.09 165.33-14.84 166-13.6 166-12.16L166-12.16Q166-11.16 165.61-10.33 165.22-9.5 164.49-8.87 163.75-8.25 162.72-7.86 161.68-7.47 160.36-7.35L160.36-7.35 151.89-6.49Q151.4-6.49 151.1-6.25 150.79-6.01 150.79-5.59L150.79-5.59Q150.79-4.96 151.27-4.37 151.74-3.78 152.54-3.33 153.33-2.88 154.37-2.61 155.4-2.34 156.5-2.34L156.5-2.34Q157.55-2.34 158.66-2.55 159.78-2.76 160.86-3.15 161.95-3.54 162.97-4.09 164-4.64 164.9-5.35ZM159.46-11.65L159.46-11.65Q159.82-11.72 160.09-12 160.36-12.28 160.36-12.7L160.36-12.7Q160.36-13.06 160.09-13.38 159.82-13.7 159.36-13.95 158.9-14.21 158.29-14.36 157.68-14.5 156.99-14.5L156.99-14.5Q155.99-14.5 154.94-14.21 153.89-13.92 153.04-13.44 152.18-12.96 151.65-12.39 151.11-11.82 151.11-11.25L151.11-11.25Q151.11-10.69 151.79-10.69L151.79-10.69Q152.21-10.69 153.13-10.79 154.06-10.89 155.19-11.02 156.31-11.16 157.46-11.33 158.6-11.5 159.46-11.65Z" opacity="1" transform="matrix(1,0,0,1,0,0)" fill="#f70f03" class="wordmark-text-0" data-fill-palette-color="primary" id="text-0"></path></svg></g></svg></g><g transform="matrix(1,0,0,1,75.54432,134.25071500783153)"><svg viewBox="0 0 244.43135999999998 18.505298716981127" height="18.505298716981127" width="244.43135999999998"><g transform="matrix(1,0,0,1,0,0)"><svg width="244.43135999999998" viewBox="0.55 -37.5 635.9300000000001 48.15" height="18.505298716981127" data-palette-color="#f70f03"><path d="M12.5 10.65L8.25 10.4 11.65 0 10.85 0 0.55-26.75 5.05-27 13.35-3.8 20.55-27 24.85-26.75 12.5 10.65ZM27.3-13.45L27.3-13.45Q27.3-17 27.9-19.63 28.5-22.25 29.85-23.93 31.2-25.6 33.45-26.45 35.7-27.3 39-27.3L39-27.3Q42.3-27.3 44.57-26.45 46.85-25.6 48.2-23.93 49.55-22.25 50.15-19.63 50.75-17 50.75-13.45L50.75-13.45Q50.75-9.8 50.1-7.15 49.45-4.5 48.05-2.83 46.65-1.15 44.42-0.33 42.2 0.5 39 0.5L39 0.5Q35.85 0.5 33.62-0.33 31.4-1.15 30-2.83 28.6-4.5 27.95-7.15 27.3-9.8 27.3-13.45ZM31.55-13.45L31.55-13.45Q31.55-9.5 32.32-7.15 33.1-4.8 34.75-3.78 36.4-2.75 39-2.75L39-2.75Q41.65-2.75 43.3-3.78 44.95-4.8 45.7-7.15 46.45-9.5 46.45-13.45L46.45-13.45Q46.45-17.35 45.77-19.68 45.1-22 43.45-23.03 41.8-24.05 39-24.05L39-24.05Q36.25-24.05 34.6-23.03 32.95-22 32.25-19.68 31.55-17.35 31.55-13.45ZM63.1 0.5L63.1 0.5Q60.85 0.5 59.2-0.3 57.55-1.1 56.65-2.73 55.75-4.35 55.75-6.8L55.75-6.8 55.75-26.8 59.95-26.8 59.95-7.65Q59.95-5.45 61.15-4.25 62.35-3.05 64.7-3.05L64.7-3.05Q65.95-3.05 67.12-3.33 68.3-3.6 69.47-4.1 70.65-4.6 71.84-5.25L71.84-5.25 71.84-26.8 76.05-26.8 76.05-5.85Q76.05-4.85 76.3-4.23 76.55-3.6 76.97-3.35 77.4-3.1 77.9-3.1L77.9-3.1Q78.59-3.1 79.25-3.4L79.25-3.4 79.7-0.35Q79.25-0.1 78.7 0.1 78.15 0.3 77.55 0.4 76.95 0.5 76.3 0.5L76.3 0.5Q74.95 0.5 73.9-0.23 72.84-0.95 72.4-2.35L72.4-2.35Q70.9-1.5 69.4-0.85 67.9-0.2 66.37 0.15 64.84 0.5 63.1 0.5ZM83.09-26.8L86.89-26.8 86.89-23.5Q88.39-24.85 89.69-25.68 90.99-26.5 92.34-26.9 93.69-27.3 95.14-27.3L95.14-27.3Q96.19-27.3 97.19-27.15 98.19-27 99.04-26.75L99.04-26.75 98.34-22.95Q97.44-23.2 96.47-23.33 95.49-23.45 94.64-23.45L94.64-23.45Q92.89-23.45 91.07-22.73 89.24-22 87.24-20.15L87.24-20.15 87.24 0 83.09 0 83.09-26.8ZM113.79-1.05L113.79-1.05 114.39-4.25Q115.24-3.9 116.31-3.63 117.39-3.35 118.54-3.15 119.69-2.95 120.89-2.85 122.09-2.75 123.19-2.75L123.19-2.75Q126.34-2.75 127.91-3.83 129.49-4.9 129.49-6.9L129.49-6.9Q129.49-7.95 129.04-8.72 128.59-9.5 127.69-10.08 126.79-10.65 125.41-11.13 124.04-11.6 122.24-12.1L122.24-12.1Q120.49-12.55 119.09-13.18 117.69-13.8 116.66-14.73 115.64-15.65 115.09-16.88 114.54-18.1 114.54-19.7L114.54-19.7Q114.54-23.3 117.09-25.3 119.64-27.3 124.59-27.3L124.59-27.3Q126.04-27.3 127.41-27.15 128.79-27 130.01-26.73 131.24-26.45 132.19-26.05L132.19-26.05 131.59-22.85Q130.59-23.15 129.51-23.4 128.44-23.65 127.21-23.8 125.99-23.95 124.59-23.95L124.59-23.95Q121.64-23.95 120.14-22.9 118.64-21.85 118.64-20.05L118.64-20.05Q118.64-18.95 119.11-18.23 119.59-17.5 120.51-16.98 121.44-16.45 122.66-16.05 123.89-15.65 125.34-15.25L125.34-15.25Q127.24-14.75 128.79-14.13 130.34-13.5 131.41-12.6 132.49-11.7 133.09-10.4 133.69-9.1 133.69-7.25L133.69-7.25Q133.69-5.65 133.16-4.38 132.64-3.1 131.71-2.18 130.79-1.25 129.49-0.68 128.19-0.1 126.59 0.2 124.99 0.5 123.14 0.5L123.14 0.5Q121.44 0.5 119.76 0.33 118.09 0.15 116.56-0.2 115.04-0.55 113.79-1.05ZM136.39-6.45L136.39-6.45Q136.39-8.85 137.39-10.4 138.39-11.95 140.44-12.88 142.49-13.8 145.49-14.33 148.49-14.85 152.49-15.2L152.49-15.2 152.49-18.95Q152.49-21.25 150.96-22.48 149.44-23.7 146.44-23.7L146.44-23.7Q145.44-23.7 144.19-23.6 142.94-23.5 141.59-23.25 140.24-23 138.79-22.55L138.79-22.55 138.04-25.95Q140.19-26.6 142.44-26.95 144.69-27.3 146.69-27.3L146.69-27.3Q149.99-27.3 152.21-26.38 154.44-25.45 155.56-23.6 156.69-21.75 156.69-19L156.69-19 156.69-6Q156.69-4.35 157.16-3.78 157.64-3.2 158.44-3.2L158.44-3.2Q158.74-3.2 159.09-3.25 159.44-3.3 159.84-3.45L159.84-3.45 160.29-0.35Q159.54 0.05 158.71 0.28 157.89 0.5 156.99 0.5L156.99 0.5Q155.19 0.5 154.14-0.43 153.09-1.35 152.79-3.25L152.79-3.25Q151.59-2.3 150.11-1.43 148.64-0.55 146.91-0.03 145.19 0.5 143.14 0.5L143.14 0.5Q141.59 0.5 140.36 0.05 139.14-0.4 138.24-1.28 137.34-2.15 136.86-3.45 136.39-4.75 136.39-6.45ZM140.64-6.8L140.64-6.8Q140.64-4.65 141.71-3.58 142.79-2.5 144.59-2.5L144.59-2.5Q145.99-2.5 147.39-2.95 148.79-3.4 150.11-4.17 151.44-4.95 152.49-5.95L152.49-5.95 152.49-12.7Q149.79-12.45 147.61-12.13 145.44-11.8 143.86-11.15 142.29-10.5 141.46-9.45 140.64-8.4 140.64-6.8ZM169.73 0L165.63 0 165.63-21.45 161.43-21.45 161.43-24.25 165.63-24.6 165.63-25.7Q165.63-29.8 166.68-32.4 167.73-35 169.76-36.25 171.78-37.5 174.73-37.5L174.73-37.5Q176.33-37.5 177.86-37.25 179.38-37 181.13-36.45L181.13-36.45 180.53-33.35Q179.23-33.75 178.03-33.95 176.83-34.15 175.63-34.15L175.63-34.15Q172.73-34.15 171.26-32.18 169.78-30.2 169.78-25.65L169.78-25.65 169.78-24.6 177.78-24.6 177.78-21.45 169.73-21.45 169.73 0ZM191.93 0.5L191.93 0.5Q189.18 0.5 187.03-0.25 184.88-1 183.41-2.6 181.93-4.2 181.16-6.7 180.38-9.2 180.38-12.7L180.38-12.7Q180.38-16.75 181.31-19.58 182.23-22.4 183.93-24.1 185.63-25.8 187.86-26.55 190.08-27.3 192.73-27.3L192.73-27.3Q197.83-27.3 200.33-24.58 202.83-21.85 202.83-15.75L202.83-15.75Q202.83-15.45 202.81-14.9 202.78-14.35 202.73-13.85L202.73-13.85Q201.68-13.8 199.91-13.65 198.13-13.5 195.78-13.35 193.43-13.2 190.63-13.1 187.83-13 184.73-12.95L184.73-12.95Q184.68-12.7 184.68-12.45 184.68-12.2 184.68-11.9L184.68-11.9Q184.68-8.65 185.61-6.68 186.53-4.7 188.31-3.8 190.08-2.9 192.63-2.9L192.63-2.9Q194.23-2.9 195.88-3.08 197.53-3.25 199.06-3.55 200.58-3.85 201.88-4.15L201.88-4.15 202.43-1Q201.08-0.55 199.41-0.2 197.73 0.15 195.88 0.33 194.03 0.5 191.93 0.5ZM184.78-15.85L184.78-15.85Q187.18-15.85 189.41-15.93 191.63-16 193.51-16.1 195.38-16.2 196.68-16.3 197.98-16.4 198.58-16.45L198.58-16.45Q198.53-19.25 197.88-20.95 197.23-22.65 195.88-23.43 194.53-24.2 192.43-24.2L192.43-24.2Q191.13-24.2 189.88-23.83 188.63-23.45 187.56-22.53 186.48-21.6 185.76-19.98 185.03-18.35 184.78-15.85ZM216.78 0.5L216.78 0.5Q214.33 0.5 212.7-0.43 211.08-1.35 210.3-3.23 209.53-5.1 209.53-7.9L209.53-7.9 209.53-23.65 204.93-23.65 204.93-26.45 209.53-26.8 210.08-33.15 213.73-33.15 213.73-26.8 222.68-26.8 222.68-23.65 213.73-23.65 213.73-8.2Q213.73-5.5 214.75-4.3 215.78-3.1 218.13-3.1L218.13-3.1Q219.33-3.1 220.53-3.33 221.73-3.55 222.93-3.9L222.93-3.9 223.53-0.65Q221.68-0.05 219.98 0.23 218.28 0.5 216.78 0.5ZM236.43 10.65L232.18 10.4 235.58 0 234.78 0 224.48-26.75 228.98-27 237.28-3.8 244.48-27 248.78-26.75 236.43 10.65ZM264.67-13.45L264.67-13.45Q264.67-17 265.27-19.63 265.87-22.25 267.22-23.93 268.57-25.6 270.82-26.45 273.07-27.3 276.37-27.3L276.37-27.3Q279.67-27.3 281.95-26.45 284.22-25.6 285.57-23.93 286.92-22.25 287.52-19.63 288.12-17 288.12-13.45L288.12-13.45Q288.12-9.8 287.47-7.15 286.82-4.5 285.42-2.83 284.02-1.15 281.8-0.33 279.57 0.5 276.37 0.5L276.37 0.5Q273.22 0.5 271-0.33 268.77-1.15 267.37-2.83 265.97-4.5 265.32-7.15 264.67-9.8 264.67-13.45ZM268.92-13.45L268.92-13.45Q268.92-9.5 269.7-7.15 270.47-4.8 272.12-3.78 273.77-2.75 276.37-2.75L276.37-2.75Q279.02-2.75 280.67-3.78 282.32-4.8 283.07-7.15 283.82-9.5 283.82-13.45L283.82-13.45Q283.82-17.35 283.15-19.68 282.47-22 280.82-23.03 279.17-24.05 276.37-24.05L276.37-24.05Q273.62-24.05 271.97-23.03 270.32-22 269.62-19.68 268.92-17.35 268.92-13.45ZM300.47 0.5L300.47 0.5Q298.22 0.5 296.57-0.3 294.92-1.1 294.02-2.73 293.12-4.35 293.12-6.8L293.12-6.8 293.12-26.8 297.32-26.8 297.32-7.65Q297.32-5.45 298.52-4.25 299.72-3.05 302.07-3.05L302.07-3.05Q303.32-3.05 304.49-3.33 305.67-3.6 306.84-4.1 308.02-4.6 309.22-5.25L309.22-5.25 309.22-26.8 313.42-26.8 313.42-5.85Q313.42-4.85 313.67-4.23 313.92-3.6 314.34-3.35 314.77-3.1 315.27-3.1L315.27-3.1Q315.97-3.1 316.62-3.4L316.62-3.4 317.07-0.35Q316.62-0.1 316.07 0.1 315.52 0.3 314.92 0.4 314.32 0.5 313.67 0.5L313.67 0.5Q312.32 0.5 311.27-0.23 310.22-0.95 309.77-2.35L309.77-2.35Q308.27-1.5 306.77-0.85 305.27-0.2 303.74 0.15 302.22 0.5 300.47 0.5ZM320.47-26.8L324.27-26.8 324.27-23.5Q325.77-24.85 327.07-25.68 328.37-26.5 329.72-26.9 331.07-27.3 332.52-27.3L332.52-27.3Q333.57-27.3 334.57-27.15 335.57-27 336.42-26.75L336.42-26.75 335.72-22.95Q334.82-23.2 333.84-23.33 332.87-23.45 332.02-23.45L332.02-23.45Q330.27-23.45 328.44-22.73 326.62-22 324.62-20.15L324.62-20.15 324.62 0 320.47 0 320.47-26.8ZM353.16-26.8L356.96-26.8 356.96-23.5Q358.46-24.85 359.76-25.68 361.06-26.5 362.41-26.9 363.76-27.3 365.21-27.3L365.21-27.3Q366.26-27.3 367.26-27.15 368.26-27 369.11-26.75L369.11-26.75 368.41-22.95Q367.51-23.2 366.54-23.33 365.56-23.45 364.71-23.45L364.71-23.45Q362.96-23.45 361.14-22.73 359.31-22 357.31-20.15L357.31-20.15 357.31 0 353.16 0 353.16-26.8ZM382.71 0.5L382.71 0.5Q379.96 0.5 377.81-0.25 375.66-1 374.18-2.6 372.71-4.2 371.93-6.7 371.16-9.2 371.16-12.7L371.16-12.7Q371.16-16.75 372.08-19.58 373.01-22.4 374.71-24.1 376.41-25.8 378.63-26.55 380.86-27.3 383.51-27.3L383.51-27.3Q388.61-27.3 391.11-24.58 393.61-21.85 393.61-15.75L393.61-15.75Q393.61-15.45 393.58-14.9 393.56-14.35 393.51-13.85L393.51-13.85Q392.46-13.8 390.68-13.65 388.91-13.5 386.56-13.35 384.21-13.2 381.41-13.1 378.61-13 375.51-12.95L375.51-12.95Q375.46-12.7 375.46-12.45 375.46-12.2 375.46-11.9L375.46-11.9Q375.46-8.65 376.38-6.68 377.31-4.7 379.08-3.8 380.86-2.9 383.41-2.9L383.41-2.9Q385.01-2.9 386.66-3.08 388.31-3.25 389.83-3.55 391.36-3.85 392.66-4.15L392.66-4.15 393.21-1Q391.86-0.55 390.18-0.2 388.51 0.15 386.66 0.33 384.81 0.5 382.71 0.5ZM375.56-15.85L375.56-15.85Q377.96-15.85 380.18-15.93 382.41-16 384.28-16.1 386.16-16.2 387.46-16.3 388.76-16.4 389.36-16.45L389.36-16.45Q389.31-19.25 388.66-20.95 388.01-22.65 386.66-23.43 385.31-24.2 383.21-24.2L383.21-24.2Q381.91-24.2 380.66-23.83 379.41-23.45 378.33-22.53 377.26-21.6 376.53-19.98 375.81-18.35 375.56-15.85ZM396.46-1.05L396.46-1.05 397.06-4.25Q397.91-3.9 398.98-3.63 400.06-3.35 401.21-3.15 402.36-2.95 403.56-2.85 404.76-2.75 405.86-2.75L405.86-2.75Q409.01-2.75 410.58-3.83 412.16-4.9 412.16-6.9L412.16-6.9Q412.16-7.95 411.71-8.72 411.26-9.5 410.36-10.08 409.46-10.65 408.08-11.13 406.71-11.6 404.91-12.1L404.91-12.1Q403.16-12.55 401.76-13.18 400.36-13.8 399.33-14.73 398.31-15.65 397.76-16.88 397.21-18.1 397.21-19.7L397.21-19.7Q397.21-23.3 399.76-25.3 402.31-27.3 407.26-27.3L407.26-27.3Q408.71-27.3 410.08-27.15 411.46-27 412.68-26.73 413.91-26.45 414.86-26.05L414.86-26.05 414.26-22.85Q413.26-23.15 412.18-23.4 411.11-23.65 409.88-23.8 408.66-23.95 407.26-23.95L407.26-23.95Q404.31-23.95 402.81-22.9 401.31-21.85 401.31-20.05L401.31-20.05Q401.31-18.95 401.78-18.23 402.26-17.5 403.18-16.98 404.11-16.45 405.33-16.05 406.56-15.65 408.01-15.25L408.01-15.25Q409.91-14.75 411.46-14.13 413.01-13.5 414.08-12.6 415.16-11.7 415.76-10.4 416.36-9.1 416.36-7.25L416.36-7.25Q416.36-5.65 415.83-4.38 415.31-3.1 414.38-2.18 413.46-1.25 412.16-0.68 410.86-0.1 409.26 0.2 407.66 0.5 405.81 0.5L405.81 0.5Q404.11 0.5 402.43 0.33 400.76 0.15 399.23-0.2 397.71-0.55 396.46-1.05ZM424.9 10.5L420.7 10.5 420.7-27 424.5-27 424.65-24.3Q426.95-25.85 429.13-26.58 431.3-27.3 433.5-27.3L433.5-27.3Q437.8-27.3 440.13-23.88 442.45-20.45 442.45-14.05L442.45-14.05Q442.45-9.05 441.15-5.83 439.85-2.6 437.18-1.05 434.5 0.5 430.4 0.5L430.4 0.5Q429.2 0.5 427.83 0.35 426.45 0.2 424.9-0.1L424.9-0.1 424.9 10.5ZM430.05-2.65L430.05-2.65Q432.85-2.65 434.63-3.73 436.4-4.8 437.28-7.25 438.15-9.7 438.15-13.7L438.15-13.7Q438.15-17.05 437.43-19.3 436.7-21.55 435.33-22.68 433.95-23.8 432-23.8L432-23.8Q430.85-23.8 429.73-23.55 428.6-23.3 427.43-22.78 426.25-22.25 424.85-21.3L424.85-21.3 424.85-3.35Q426.45-3 427.7-2.83 428.95-2.65 430.05-2.65ZM446.25-13.45L446.25-13.45Q446.25-17 446.85-19.63 447.45-22.25 448.8-23.93 450.15-25.6 452.4-26.45 454.65-27.3 457.95-27.3L457.95-27.3Q461.25-27.3 463.53-26.45 465.8-25.6 467.15-23.93 468.5-22.25 469.1-19.63 469.7-17 469.7-13.45L469.7-13.45Q469.7-9.8 469.05-7.15 468.4-4.5 467-2.83 465.6-1.15 463.38-0.33 461.15 0.5 457.95 0.5L457.95 0.5Q454.8 0.5 452.58-0.33 450.35-1.15 448.95-2.83 447.55-4.5 446.9-7.15 446.25-9.8 446.25-13.45ZM450.5-13.45L450.5-13.45Q450.5-9.5 451.28-7.15 452.05-4.8 453.7-3.78 455.35-2.75 457.95-2.75L457.95-2.75Q460.6-2.75 462.25-3.78 463.9-4.8 464.65-7.15 465.4-9.5 465.4-13.45L465.4-13.45Q465.4-17.35 464.73-19.68 464.05-22 462.4-23.03 460.75-24.05 457.95-24.05L457.95-24.05Q455.2-24.05 453.55-23.03 451.9-22 451.2-19.68 450.5-17.35 450.5-13.45ZM478.9 0L474.75 0 474.75-26.8 478.55-26.8 478.55-24.45Q480.2-25.35 481.72-26 483.25-26.65 484.82-26.98 486.4-27.3 488.15-27.3L488.15-27.3Q490.6-27.3 492.25-26.45 493.9-25.6 494.75-23.98 495.6-22.35 495.6-19.95L495.6-19.95 495.6 0 491.45 0 491.45-18.8Q491.45-21.2 490.22-22.48 489-23.75 486.5-23.75L486.5-23.75Q485.15-23.75 483.9-23.45 482.65-23.15 481.45-22.68 480.25-22.2 478.9-21.5L478.9-21.5 478.9 0ZM499.9-1.05L499.9-1.05 500.5-4.25Q501.35-3.9 502.42-3.63 503.5-3.35 504.65-3.15 505.8-2.95 507-2.85 508.2-2.75 509.3-2.75L509.3-2.75Q512.45-2.75 514.02-3.83 515.6-4.9 515.6-6.9L515.6-6.9Q515.6-7.95 515.15-8.72 514.7-9.5 513.8-10.08 512.9-10.65 511.52-11.13 510.15-11.6 508.35-12.1L508.35-12.1Q506.6-12.55 505.2-13.18 503.8-13.8 502.77-14.73 501.75-15.65 501.2-16.88 500.65-18.1 500.65-19.7L500.65-19.7Q500.65-23.3 503.2-25.3 505.75-27.3 510.7-27.3L510.7-27.3Q512.15-27.3 513.52-27.15 514.9-27 516.12-26.73 517.35-26.45 518.3-26.05L518.3-26.05 517.7-22.85Q516.7-23.15 515.62-23.4 514.55-23.65 513.32-23.8 512.1-23.95 510.7-23.95L510.7-23.95Q507.75-23.95 506.25-22.9 504.75-21.85 504.75-20.05L504.75-20.05Q504.75-18.95 505.22-18.23 505.7-17.5 506.62-16.98 507.55-16.45 508.77-16.05 510-15.65 511.45-15.25L511.45-15.25Q513.35-14.75 514.9-14.13 516.45-13.5 517.52-12.6 518.6-11.7 519.2-10.4 519.8-9.1 519.8-7.25L519.8-7.25Q519.8-5.65 519.27-4.38 518.75-3.1 517.82-2.18 516.9-1.25 515.6-0.68 514.3-0.1 512.7 0.2 511.1 0.5 509.25 0.5L509.25 0.5Q507.55 0.5 505.87 0.33 504.2 0.15 502.67-0.2 501.15-0.55 499.9-1.05ZM526.24-32.2L526.24-32.2Q524.84-32.2 524.24-32.7 523.64-33.2 523.64-34.45L523.64-34.45Q523.64-35.75 524.22-36.25 524.79-36.75 526.24-36.75L526.24-36.75Q527.64-36.75 528.22-36.25 528.79-35.75 528.79-34.45L528.79-34.45Q528.79-33.2 528.22-32.7 527.64-32.2 526.24-32.2ZM528.29 0L524.14 0 524.14-26.8 528.29-26.8 528.29 0ZM534.59-0.7L534.59-0.7 534.59-37 538.74-37 538.74-24.4Q540.99-25.9 543.09-26.6 545.19-27.3 547.34-27.3L547.34-27.3Q551.69-27.3 554.02-23.9 556.34-20.5 556.34-14.1L556.34-14.1Q556.34-8.95 555.04-5.73 553.74-2.5 550.99-1 548.24 0.5 543.89 0.5L543.89 0.5Q541.89 0.5 539.59 0.2 537.29-0.1 534.59-0.7ZM538.74-21.25L538.74-3.25Q540.34-2.95 541.59-2.78 542.84-2.6 543.94-2.6L543.94-2.6Q546.74-2.6 548.52-3.7 550.29-4.8 551.17-7.28 552.04-9.75 552.04-13.85L552.04-13.85Q552.04-17.15 551.32-19.33 550.59-21.5 549.22-22.63 547.84-23.75 545.89-23.75L545.89-23.75Q544.74-23.75 543.62-23.5 542.49-23.25 541.32-22.73 540.14-22.2 538.74-21.25L538.74-21.25ZM563.49-32.2L563.49-32.2Q562.09-32.2 561.49-32.7 560.89-33.2 560.89-34.45L560.89-34.45Q560.89-35.75 561.46-36.25 562.04-36.75 563.49-36.75L563.49-36.75Q564.89-36.75 565.46-36.25 566.04-35.75 566.04-34.45L566.04-34.45Q566.04-33.2 565.46-32.7 564.89-32.2 563.49-32.2ZM565.54 0L561.39 0 561.39-26.8 565.54-26.8 565.54 0ZM571.83-37L575.98-37 575.98-7.4Q575.98-5.65 576.36-4.73 576.73-3.8 577.41-3.5 578.08-3.2 578.88-3.2L578.88-3.2Q579.43-3.2 580.06-3.3 580.68-3.4 581.38-3.65L581.38-3.65 581.83-0.3Q580.98 0.05 579.93 0.28 578.88 0.5 577.78 0.5L577.78 0.5Q575.93 0.5 574.58-0.15 573.23-0.8 572.53-2.45 571.83-4.1 571.83-7.05L571.83-7.05 571.83-37ZM587.03-32.2L587.03-32.2Q585.63-32.2 585.03-32.7 584.43-33.2 584.43-34.45L584.43-34.45Q584.43-35.75 585.01-36.25 585.58-36.75 587.03-36.75L587.03-36.75Q588.43-36.75 589.01-36.25 589.58-35.75 589.58-34.45L589.58-34.45Q589.58-33.2 589.01-32.7 588.43-32.2 587.03-32.2ZM589.08 0L584.93 0 584.93-26.8 589.08-26.8 589.08 0ZM604.48 0.5L604.48 0.5Q602.03 0.5 600.4-0.43 598.78-1.35 598-3.23 597.23-5.1 597.23-7.9L597.23-7.9 597.23-23.65 592.63-23.65 592.63-26.45 597.23-26.8 597.78-33.15 601.43-33.15 601.43-26.8 610.38-26.8 610.38-23.65 601.43-23.65 601.43-8.2Q601.43-5.5 602.45-4.3 603.48-3.1 605.83-3.1L605.83-3.1Q607.03-3.1 608.23-3.33 609.43-3.55 610.63-3.9L610.63-3.9 611.23-0.65Q609.38-0.05 607.68 0.23 605.98 0.5 604.48 0.5ZM624.13 10.65L619.88 10.4 623.28 0 622.48 0 612.18-26.75 616.68-27 624.98-3.8 632.18-27 636.48-26.75 624.13 10.65Z" opacity="1" transform="matrix(1,0,0,1,0,0)" fill="#f70f03" class="slogan-text-1" data-fill-palette-color="secondary" id="text-1"></path></svg></g></svg></g></svg></g></svg></g><g transform="matrix(1,0,0,1,148.1369250964323,0)"><svg viewBox="0 0 101.22374980713535 211.10881096769108" height="211.10881096769108" width="101.22374980713535"><g><svg xmlns="http://www.w3.org/2000/svg" xmlns:xlink="http://www.w3.org/1999/xlink" version="1.1" x="0" y="0" viewBox="29.003658185182093 7.584000196593346 39.996576378943416 83.41549980340666" enable-background="new 0 0 100 100" xml:space="preserve" height="211.10881096769108" width="101.22374980713535" class="icon-icon-0" data-fill-palette-color="accent" id="icon-0"><g fill="#f70f03" data-fill-palette-color="accent"><g fill="#f70f03" data-fill-palette-color="accent"><circle cx="49.002" cy="17.286" r="9.7" fill="#f70f03" data-fill-palette-color="accent"></circle></g><g fill="#f70f03" data-fill-palette-color="accent"><path d="M68.961 61.255S68.33 54.562 63.376 49.535C66.958 47.45 66.382 44.856 66.382 44.856S64.974 29.911 48.944 29.911C32.916 29.911 31.616 44.64 31.616 44.64S31.086 47.262 34.593 49.401C29.624 54.361 29.036 61.005 29.036 61.005S27.741 67.442 41.54 69.164V83.537A7.462 7.462 0 1 0 56.465 83.537V69.19C70.359 67.538 68.961 61.255 68.961 61.255" fill="#f70f03" data-fill-palette-color="accent"></path></g></g></svg></g></svg></g><g></g></svg></g><defs></defs></svg><rect width="231.2359315739558" height="247.2" fill="none" stroke="none" visibility="hidden"></rect></g></svg></g></svg>